<?xml version="1.0" standalone="no"?>
<!DOCTYPE svg PUBLIC "-//W3C//DTD SVG 20010904//EN"
 "http://www.w3.org/TR/2001/REC-SVG-20010904/DTD/svg10.dtd">
<svg version="1.0" xmlns="http://www.w3.org/2000/svg"
 width="768.000000pt" height="768.000000pt" viewBox="0 0 768.000000 768.000000"
 preserveAspectRatio="xMidYMid meet">
<metadata>
Created by potrace 1.16, written by Peter Selinger 2001-2019
</metadata>
<g transform="translate(0.000000,768.000000) scale(0.100000,-0.100000)"
fill="#000000" stroke="none">
<path d="M2 4977 c1 -1486 4 -2670 5 -2632 3 58 7 72 23 80 11 6 52 30 92 55
95 58 175 102 268 147 41 20 89 48 105 64 35 32 184 97 163 71 -11 -14 -11
-15 5 -9 10 4 21 7 23 7 2 0 4 7 4 15 0 8 5 15 10 15 6 0 10 -4 10 -9 0 -13
139 37 165 58 33 28 77 44 85 31 4 -7 18 -8 33 -4 l27 6 0 807 c0 1181 15
1514 80 1780 77 313 202 535 422 747 283 272 613 399 1129 435 241 16 1689 23
2087 10 361 -12 531 -27 684 -61 649 -145 1073 -598 1187 -1267 40 -237 46
-431 46 -1483 0 -1052 -6 -1246 -46 -1483 -103 -605 -461 -1039 -1009 -1221
-58 -19 -157 -46 -220 -60 -63 -13 -105 -25 -92 -25 15 -1 32 -17 56 -53 19
-29 52 -73 75 -98 22 -25 41 -48 41 -51 0 -3 16 -26 35 -50 19 -24 35 -49 35
-55 0 -17 24 -64 33 -64 5 0 5 -4 2 -10 -3 -5 -2 -10 3 -10 5 0 23 -21 40 -47
17 -27 39 -59 48 -73 l16 -25 -21 25 -22 25 12 -25 c7 -14 15 -27 20 -30 8 -6
79 -107 79 -114 0 -2 16 -33 36 -68 20 -34 37 -72 39 -83 4 -28 24 -77 39 -95
7 -8 25 -45 40 -82 25 -60 46 -87 46 -58 0 13 47 13 55 0 4 -7 297 -10 845
-10 l840 0 0 3840 0 3840 -3840 0 -3840 0 2 -2703z"/>
<path d="M2790 6133 c-137 -6 -312 -23 -389 -39 -448 -90 -725 -366 -815 -814
-35 -173 -39 -282 -43 -1225 -5 -910 -2 -1084 18 -1054 8 12 10 12 18 -1 8
-12 27 -12 133 -2 68 7 157 12 199 12 72 0 76 1 88 26 9 20 17 25 34 20 12 -3
42 -6 67 -6 33 0 41 -3 30 -10 -11 -7 -2 -10 32 -10 26 0 80 -4 120 -9 40 -5
120 -15 177 -22 64 -8 97 -15 85 -20 -21 -7 -29 -5 86 -28 30 -7 63 -19 73
-29 11 -9 -8 21 -42 68 -112 156 -198 352 -243 558 -29 130 -31 422 -5 555 60
296 191 542 406 758 285 286 622 425 1026 424 242 -1 434 -46 639 -149 158
-80 241 -140 376 -276 220 -219 346 -454 407 -757 27 -133 24 -414 -5 -550
-114 -528 -492 -946 -998 -1102 -55 -17 -134 -37 -178 -44 l-79 -13 28 -18
c15 -10 33 -19 39 -20 17 -3 58 -27 87 -50 14 -12 43 -34 65 -51 126 -97 332
-287 429 -396 101 -113 175 -206 175 -218 0 -6 4 -11 9 -11 7 0 31 -51 31 -66
0 -2 -15 -5 -32 -5 -19 -1 -25 -3 -15 -6 34 -9 356 17 455 36 465 90 741 375
822 847 32 189 40 453 40 1409 0 1168 -10 1347 -82 1575 -117 369 -381 596
-783 675 -182 35 -255 37 -1335 40 -591 1 -1109 0 -1150 -2z m2708 -488 c61
-33 120 -94 154 -157 19 -37 23 -58 23 -143 0 -86 -3 -107 -24 -150 -33 -67
-100 -131 -169 -163 -84 -39 -193 -38 -279 2 -75 34 -134 95 -171 174 -38 81
-38 193 0 273 40 88 121 159 218 190 14 5 63 7 110 6 72 -3 93 -7 138 -32z"/>
<path d="M3610 4745 c-323 -83 -578 -333 -672 -660 -31 -108 -33 -361 -4 -469
44 -164 121 -301 235 -419 116 -121 251 -203 418 -254 79 -24 105 -26 248 -27
138 -1 172 2 245 22 526 144 820 698 642 1212 -91 262 -309 481 -572 572 -161
56 -375 65 -540 23z"/>
<path d="M2 848 l-2 -848 843 1 c782 1 833 2 712 15 -152 17 -324 54 -444 96
-388 134 -716 421 -905 787 -118 230 -165 412 -199 761 -2 19 -5 -346 -5 -812z"/>
</g>
</svg>
