<?xml version="1.0" standalone="no"?>
<!DOCTYPE svg PUBLIC "-//W3C//DTD SVG 20010904//EN"
 "http://www.w3.org/TR/2001/REC-SVG-20010904/DTD/svg10.dtd">
<svg version="1.0" xmlns="http://www.w3.org/2000/svg"
 width="512.000000pt" height="512.000000pt" viewBox="0 0 512.000000 512.000000"
 preserveAspectRatio="xMidYMid meet">
<metadata>
Created by potrace 1.16, written by Peter Selinger 2001-2019
</metadata>
<g transform="translate(0.000000,512.000000) scale(0.100000,-0.100000)"
fill="#000000" stroke="none">
<path d="M926 4249 c-85 -11 -190 -47 -264 -91 -32 -18 -98 -73 -147 -123 -73
-72 -99 -107 -133 -175 -82 -166 -77 -79 -77 -1300 0 -1221 -5 -1134 77 -1300
34 -68 60 -103 133 -175 135 -135 249 -193 425 -214 117 -15 3123 -15 3240 0
176 21 290 79 425 214 73 72 99 107 133 175 82 166 77 79 77 1300 0 1221 5
1134 -77 1300 -34 68 -60 103 -133 175 -135 135 -249 193 -425 214 -105 14
-3152 13 -3254 0z m3316 -250 c140 -55 233 -138 293 -263 18 -39 38 -98 44
-130 15 -83 15 -2009 0 -2092 -14 -78 -67 -188 -121 -249 -54 -61 -140 -117
-226 -147 l-67 -23 -1605 0 -1605 0 -67 23 c-86 30 -172 86 -226 147 -54 61
-107 171 -121 249 -15 83 -15 2009 0 2092 39 217 222 390 439 414 36 4 769 7
1630 6 l1565 -1 67 -26z"/>
<path d="M879 3687 c-41 -27 -59 -60 -59 -107 0 -32 17 -51 218 -250 119 -119
355 -351 524 -516 l306 -299 -431 -408 c-668 -630 -597 -557 -597 -614 0 -28
7 -58 16 -71 32 -47 113 -66 160 -39 12 7 246 225 519 485 274 259 503 472
508 472 6 0 103 -92 216 -204 114 -111 217 -210 231 -220 32 -21 108 -21 140
1 14 9 121 110 237 226 l213 210 42 -39 c24 -21 252 -236 507 -479 255 -242
473 -445 485 -452 48 -28 123 -8 161 43 8 10 15 39 15 64 0 36 -6 53 -27 77
-16 17 -246 237 -513 489 -267 252 -486 461 -488 464 -1 3 190 193 425 422
597 580 613 598 613 639 0 46 -19 79 -59 106 -40 27 -86 29 -122 5 -15 -9
-370 -351 -789 -759 -419 -409 -766 -743 -770 -743 -4 0 -351 334 -770 743
-419 408 -774 750 -789 759 -36 24 -82 22 -122 -5z"/>
</g>
</svg>
