<?xml version="1.0" standalone="no"?>
<!DOCTYPE svg PUBLIC "-//W3C//DTD SVG 20010904//EN"
 "http://www.w3.org/TR/2001/REC-SVG-20010904/DTD/svg10.dtd">
<svg version="1.0" xmlns="http://www.w3.org/2000/svg"
 width="900.000000pt" height="980.000000pt" viewBox="0 0 900.000000 980.000000"
 preserveAspectRatio="xMidYMid meet">
<metadata>
Created by potrace 1.16, written by Peter Selinger 2001-2019
</metadata>
<g transform="translate(0.000000,980.000000) scale(0.100000,-0.100000)"
fill="#000000" stroke="none">
<path d="M5395 9108 c-3145 -3158 -4180 -4201 -4180 -4208 0 -8 2442 -2465
4205 -4232 l665 -667 854 850 c470 467 852 851 850 853 -35 37 -1440 1448
-2193 2204 l-990 992 995 998 c1486 1490 2184 2192 2187 2200 1 4 -111 120
-250 257 -139 137 -523 518 -853 847 l-601 599 -689 -693z"/>
</g>
</svg>
